<?xml version="1.0" encoding="utf-8"?>
<!-- Generator: Adobe Illustrator 27.2.0, SVG Export Plug-In . SVG Version: 6.00 Build 0)  -->
<svg version="1.1" xmlns="http://www.w3.org/2000/svg" xmlns:xlink="http://www.w3.org/1999/xlink" x="0px" y="0px"
	 viewBox="0 0 221 88" style="enable-background:new 0 0 221 88;" xml:space="preserve">
<style type="text/css">
	.st0{display:none;}
	.st1{display:inline;fill:#231F20;stroke:#231F20;stroke-width:0.8036;stroke-miterlimit:10;}
	.st2{display:inline;fill:#231F20;stroke:#231F20;stroke-width:0.1628;stroke-miterlimit:10;}
	.st3{fill:#61B2C6;}
	.st4{fill:#FFFFFF;}
	.st5{fill:#919490;}
	.st6{display:inline;fill:#D0DD27;}
</style>
<g id="Background" class="st0">
	<rect class="st2" width="221" height="88"/>
</g>
<g id="Logos">
	<g>
		<path class="st4" d="M127.25,71.7l-0.08-0.68h-0.03c-0.3,0.42-0.88,0.8-1.64,0.8c-1.09,0-1.64-0.77-1.64-1.54
			c0-1.3,1.15-2.01,3.23-2v-0.11c0-0.44-0.12-1.24-1.22-1.24c-0.5,0-1.02,0.16-1.4,0.4l-0.22-0.64c0.44-0.29,1.09-0.48,1.76-0.48
			c1.64,0,2.04,1.12,2.04,2.2v2.01c0,0.47,0.02,0.92,0.09,1.29H127.25z M127.1,68.96c-1.06-0.02-2.27,0.17-2.27,1.21
			c0,0.63,0.42,0.93,0.92,0.93c0.7,0,1.14-0.44,1.3-0.9c0.03-0.1,0.06-0.21,0.06-0.31V68.96z"/>
		<path class="st4" d="M131.85,70.7c0.29,0.19,0.8,0.39,1.29,0.39c0.71,0,1.04-0.35,1.04-0.8c0-0.47-0.28-0.72-1-0.99
			c-0.96-0.34-1.42-0.88-1.42-1.52c0-0.87,0.7-1.57,1.85-1.57c0.54,0,1.02,0.16,1.32,0.33l-0.24,0.71c-0.21-0.13-0.6-0.31-1.1-0.31
			c-0.58,0-0.9,0.33-0.9,0.73c0,0.44,0.32,0.64,1.02,0.91c0.93,0.35,1.41,0.82,1.41,1.62c0,0.94-0.73,1.61-2.01,1.61
			c-0.59,0-1.13-0.14-1.51-0.37L131.85,70.7z"/>
		<path class="st4" d="M140.86,70.23c0,0.55,0.01,1.04,0.04,1.46h-0.86l-0.06-0.88h-0.02c-0.25,0.43-0.82,1-1.77,1
			c-0.84,0-1.85-0.47-1.85-2.35v-3.14h0.98v2.97c0,1.02,0.31,1.71,1.2,1.71c0.65,0,1.11-0.46,1.29-0.89
			c0.06-0.14,0.09-0.32,0.09-0.5v-3.29h0.98V70.23z"/>
		<path class="st4" d="M142.45,71.7c0.02-0.37,0.05-0.91,0.05-1.39v-6.49h0.96v3.37h0.02c0.34-0.6,0.97-0.99,1.83-0.99
			c1.33,0,2.27,1.11,2.26,2.74c0,1.92-1.21,2.87-2.41,2.87c-0.78,0-1.4-0.3-1.8-1.01h-0.03l-0.04,0.89H142.45z M143.45,69.55
			c0,0.12,0.02,0.24,0.04,0.35c0.19,0.68,0.75,1.14,1.46,1.14c1.02,0,1.63-0.83,1.63-2.06c0-1.08-0.55-2-1.6-2
			c-0.67,0-1.29,0.46-1.49,1.2c-0.02,0.11-0.06,0.24-0.06,0.4V69.55z"/>
		<path class="st4" d="M148.67,70.7c0.29,0.19,0.8,0.39,1.29,0.39c0.71,0,1.04-0.35,1.04-0.8c0-0.47-0.28-0.72-1-0.99
			c-0.96-0.34-1.42-0.88-1.42-1.52c0-0.87,0.7-1.57,1.85-1.57c0.54,0,1.02,0.16,1.32,0.33l-0.24,0.71c-0.21-0.13-0.6-0.31-1.1-0.31
			c-0.58,0-0.9,0.33-0.9,0.73c0,0.44,0.32,0.64,1.02,0.91c0.93,0.35,1.41,0.82,1.41,1.62c0,0.94-0.73,1.61-2.01,1.61
			c-0.59,0-1.13-0.14-1.51-0.37L148.67,70.7z"/>
		<path class="st4" d="M154.29,64.82c0.01,0.33-0.23,0.6-0.62,0.6c-0.34,0-0.59-0.27-0.59-0.6c0-0.34,0.25-0.61,0.61-0.61
			C154.06,64.21,154.29,64.48,154.29,64.82z M153.2,71.7v-5.37h0.98v5.37H153.2z"/>
		<path class="st4" d="M160.43,63.83v6.49c0,0.48,0.01,1.02,0.04,1.39h-0.88l-0.05-0.93h-0.02c-0.3,0.6-0.95,1.05-1.83,1.05
			c-1.3,0-2.29-1.1-2.29-2.73c-0.01-1.79,1.1-2.88,2.4-2.88c0.82,0,1.38,0.39,1.62,0.82h0.02v-3.2H160.43z M159.46,68.51
			c0-0.12-0.01-0.29-0.05-0.41c-0.14-0.62-0.68-1.13-1.41-1.13c-1.01,0-1.61,0.89-1.61,2.07c0,1.09,0.53,1.98,1.59,1.98
			c0.65,0,1.25-0.43,1.43-1.16c0.03-0.13,0.05-0.27,0.05-0.42V68.51z"/>
		<path class="st4" d="M163.15,64.82c0.01,0.33-0.23,0.6-0.62,0.6c-0.34,0-0.59-0.27-0.59-0.6c0-0.34,0.25-0.61,0.61-0.61
			C162.91,64.21,163.15,64.48,163.15,64.82z M162.06,71.7v-5.37h0.98v5.37H162.06z"/>
		<path class="st4" d="M167.63,71.7l-0.08-0.68h-0.03c-0.3,0.42-0.88,0.8-1.64,0.8c-1.09,0-1.64-0.77-1.64-1.54
			c0-1.3,1.15-2.01,3.23-2v-0.11c0-0.44-0.12-1.24-1.22-1.24c-0.5,0-1.02,0.16-1.4,0.4l-0.22-0.64c0.44-0.29,1.09-0.48,1.76-0.48
			c1.64,0,2.04,1.12,2.04,2.2v2.01c0,0.47,0.02,0.92,0.09,1.29H167.63z M167.48,68.96c-1.06-0.02-2.27,0.17-2.27,1.21
			c0,0.63,0.42,0.93,0.92,0.93c0.7,0,1.14-0.44,1.3-0.9c0.03-0.1,0.06-0.21,0.06-0.31V68.96z"/>
		<path class="st4" d="M170.01,68.01c0-0.63-0.01-1.18-0.05-1.68h0.85l0.03,1.05h0.05c0.24-0.72,0.83-1.18,1.48-1.18
			c0.11,0,0.19,0.01,0.28,0.03v0.92c-0.1-0.02-0.2-0.03-0.33-0.03c-0.69,0-1.17,0.52-1.31,1.25c-0.02,0.13-0.05,0.29-0.05,0.45v2.86
			h-0.96V68.01z"/>
		<path class="st4" d="M174.27,66.33l1.17,3.17c0.12,0.35,0.25,0.78,0.34,1.1h0.02c0.1-0.32,0.21-0.73,0.34-1.12l1.06-3.15h1.03
			l-1.46,3.83c-0.7,1.84-1.18,2.78-1.84,3.36c-0.48,0.42-0.95,0.59-1.2,0.63l-0.24-0.82c0.24-0.08,0.57-0.23,0.86-0.48
			c0.27-0.21,0.6-0.59,0.82-1.09c0.04-0.1,0.08-0.18,0.08-0.23c0-0.06-0.02-0.13-0.07-0.25l-1.98-4.95H174.27z"/>
		<path class="st4" d="M186.35,68.97c0,1.98-1.37,2.85-2.67,2.85c-1.45,0-2.57-1.06-2.57-2.76c0-1.8,1.17-2.85,2.66-2.85
			C185.31,66.21,186.35,67.33,186.35,68.97z M182.09,69.02c0,1.17,0.68,2.06,1.63,2.06c0.93,0,1.63-0.88,1.63-2.08
			c0-0.91-0.45-2.06-1.61-2.06C182.59,66.94,182.09,68.01,182.09,69.02z"/>
		<path class="st4" d="M187.69,71.7v-4.62h-0.75v-0.74h0.75v-0.25c0-0.75,0.17-1.44,0.62-1.87c0.37-0.35,0.85-0.5,1.31-0.5
			c0.34,0,0.64,0.08,0.83,0.16l-0.13,0.75c-0.14-0.07-0.34-0.12-0.62-0.12c-0.83,0-1.04,0.73-1.04,1.55v0.29h1.3v0.74h-1.3v4.62
			H187.69z"/>
		<path class="st4" d="M194.18,64.22v7.47h-0.97v-7.47H194.18z"/>
		<path class="st4" d="M195.87,64.31c0.47-0.08,1.08-0.14,1.85-0.14c0.95,0,1.65,0.22,2.1,0.62c0.41,0.35,0.65,0.9,0.65,1.56
			c0,0.68-0.2,1.21-0.58,1.6c-0.51,0.54-1.34,0.82-2.28,0.82c-0.29,0-0.56-0.01-0.78-0.07v2.99h-0.97V64.31z M196.84,67.92
			c0.21,0.06,0.48,0.08,0.8,0.08c1.16,0,1.87-0.57,1.87-1.6c0-0.99-0.7-1.46-1.76-1.46c-0.42,0-0.74,0.03-0.91,0.08V67.92z"/>
		<path class="st4" d="M202.05,69.35l-0.78,2.35h-1l2.54-7.47h1.16l2.55,7.47h-1.03l-0.8-2.35H202.05z M204.5,68.59l-0.73-2.15
			c-0.17-0.49-0.28-0.93-0.39-1.36h-0.02c-0.11,0.44-0.23,0.9-0.38,1.35l-0.73,2.16H204.5z"/>
	</g>
	<polygon class="st3" points="37.56,23.2 37.56,23.19 32.51,22.46 32.34,22.43 32.34,22.43 27.13,21.68 26.68,20.56 24.57,20.26 
		23.26,21.94 24.06,23.91 26.17,24.2 27.01,23.12 32.17,23.86 28.12,29.05 23.15,28.35 23.16,28.37 20.83,28.04 19.45,24.62 
		18.07,21.21 22.61,15.39 29.91,16.42 31.46,20.26 33.11,20.51 30.93,15.11 21.98,13.85 16.42,20.97 18.11,25.16 19.8,29.35 
		22.07,34.95 21.24,36 22.04,37.97 24.15,38.27 25.45,36.59 24.66,34.62 23.42,34.45 21.45,29.58 27.93,30.49 30.68,37.31 
		28.32,40.34 28.29,40.37 28.29,40.37 26.14,43.12 18.84,42.09 16.08,35.26 18.67,31.94 18.05,30.4 14.43,35.03 17.82,43.4 
		26.77,44.66 29.44,41.25 31.83,38.2 31.84,38.2 32.07,37.9 32.86,36.89 32.86,36.89 36.1,32.75 37.37,32.93 38.68,31.25 
		37.88,29.28 35.78,28.98 34.47,30.66 34.96,31.87 31.71,36.01 29.27,29.95 33.82,24.13 41.1,25.15 43.86,31.99 39.32,37.8 
		35.17,37.21 34.18,38.48 34.14,38.52 39.95,39.34 45.51,32.22 42.12,23.84 	"/>
	<g>
		<g>
			<path class="st4" d="M65.99,30.63c5.53,0,7.14,2.98,7.14,7.1v0.31c0,3.74-1.64,5.34-3.01,5.72c1.45,0.34,4.16,1.72,4.16,6.37
				v0.76c0,5.46-2.71,7.21-8.28,7.21h-9.01c-0.76,0-1.41-0.34-1.41-1.03V31.62c0-0.76,0.27-0.99,1.14-0.99H65.99z M58.93,33.6v8.97
				h6.83c3.01,0,4.04-1.34,4.04-4.39v-0.31c0-2.67-0.99-4.27-3.97-4.27H58.93z M58.93,45.24v9.88h7.1c3.55,0,4.88-0.95,4.88-4.39
				v-0.76c0-3.36-1.45-4.73-4.81-4.73H58.93z"/>
			<path class="st4" d="M78.63,30.32c0-0.46,1.56-0.65,2.33-0.65c0.61,0,0.99,0.31,0.99,1.03v2.33c0,0.69-0.38,1.03-1.03,1.03
				c-0.73,0-2.29-0.23-2.29-0.69V30.32z M86.41,57.22c0.04,0.53-0.15,0.76-0.72,0.92c-0.99,0.31-1.79,0.42-2.63,0.42
				c-2.86,0-4.39-1.45-4.39-5.19V38.11c0-0.53,1.68-0.57,2.29-0.57c0.53,0,0.92,0.27,0.92,0.88v14.46c0,1.68,0.34,2.67,1.98,2.67
				c0.57,0,1.07-0.11,1.79-0.23C86.1,55.28,86.37,56.69,86.41,57.22z"/>
			<path class="st4" d="M88.01,44.29c0-5.04,2.33-6.79,7.86-6.79h0.11c5.53,0,7.86,1.76,7.86,6.79v7.56c0,5.04-2.33,6.72-7.86,6.72
				h-0.15c-5.49,0-7.82-1.68-7.82-6.72V44.29z M96.03,55.73c3.47,0,4.66-1.22,4.66-3.89v-7.56c0-2.75-1.18-3.97-4.66-3.97h-0.19
				c-3.47,0-4.62,1.18-4.62,3.97v7.56c0,2.71,1.11,3.89,4.58,3.89H96.03z"/>
			<path class="st4" d="M114.88,55.7c2.4,0,5.3-0.88,5.3-4.46c0-6.72-12.48-5.49-12.48-13.97c0-4.85,2.9-7.06,7.98-7.06
				c2.14,0,5.3,0.27,6.64,0.76c0.61,0.23,0.73,0.46,0.65,1.07c-0.11,0.99-0.5,1.76-1.14,1.64c-1.37-0.23-3.13-0.61-5.95-0.61
				c-3.21,0-4.81,1.37-4.81,3.82c0,6.33,12.48,5.27,12.48,14c0,6.26-4.39,7.67-8.51,7.67c-3.05,0-5.88-0.46-7.25-0.88
				c-0.69-0.23-0.69-0.38-0.65-0.99c0.08-1.03,0.34-2.02,0.99-1.91C109.23,55.05,111.98,55.7,114.88,55.7z"/>
			<path class="st4" d="M130.94,40.66v12.25c0,1.95,0.65,2.94,2.37,2.94c0.8,0,1.3-0.15,1.98-0.31c0.57,0,0.76,0.42,0.76,1.98
				c0.04,0.27-0.23,0.53-0.72,0.69c-0.95,0.27-2.1,0.34-2.94,0.34c-2.82,0-4.69-1.14-4.69-5.27V40.66h-2.44
				c-0.5,0-0.69-0.27-0.69-0.76c0-0.69,0.11-1.95,0.8-1.95h2.33v-4.58c0-0.46,1.6-0.61,2.37-0.61c0.5,0,0.88,0.38,0.88,0.88v4.31
				h4.2c0.53,0,0.69,0.27,0.69,0.76c0,0.65-0.11,1.95-0.8,1.95H130.94z"/>
			<path class="st4" d="M146.78,40.36c-2.29,0-4.43,0.84-4.43,1.14v16.14c0,0.69-0.42,0.92-0.92,0.92c-0.69,0-2.25-0.15-2.25-0.61
				V40.17c0-1.3,3.13-2.67,7.44-2.67c0.69,0,1.72,0.08,2.67,0.23c0.61,0.11,0.84,0.31,0.84,0.8c0,1.49-0.34,2.18-0.76,2.14
				C148.53,40.51,147.85,40.36,146.78,40.36z"/>
			<path class="st4" d="M166.58,56.61c0,0.72-3.43,1.95-7.78,1.95c-5.04,0-7.14-1.6-7.14-6.14c0-4.39,2.06-6.03,6.22-6.03
				c2.06,0,4.27,0.46,5.57,0.88V43.9c0-2.48-1.14-3.7-4.81-3.7c-1.79,0-3.82,0.31-5.11,0.53c-0.61,0-0.76-1.26-0.8-1.76
				c-0.04-0.61,0.11-0.76,0.34-0.84c0.65-0.23,3.43-0.65,6.18-0.65c4.92,0,7.33,1.3,7.33,6.33V56.61z M163.45,49.74
				c-0.27-0.38-3.13-0.92-4.88-0.92c-2.52,0-3.78,0.95-3.78,3.66c0,2.67,1.26,3.62,4.08,3.62c1.91,0,4.27-0.46,4.58-0.84V49.74z"/>
			<path class="st4" d="M183.14,43.79c0-2.4-0.5-3.36-2.94-3.36c-2.48,0-5.8,1.11-5.8,1.68v15.53c0,0.69-0.46,0.92-0.92,0.92
				c-0.72,0-2.29-0.15-2.29-0.61V40.7c0-1.34,4.77-3.21,9.58-3.21c4.5,0,5.57,1.76,5.57,6.37v13.78c0,0.69-0.46,0.92-0.95,0.92
				c-0.73,0-2.25-0.15-2.25-0.61V43.79z"/>
			<path class="st4" d="M205.81,55.96c0,0.8-0.08,1.07-0.72,1.41c-1.18,0.57-4.69,1.18-7.14,1.18c-6.45,0-7.1-3.43-7.1-7.02v-6.87
				c0-3.32,0.8-7.17,6.14-7.17c2.14,0,4.35,0.65,5.61,1.14v-8.55c0-0.53,1.68-0.61,2.29-0.61c0.57,0,0.92,0.27,0.92,1.11V55.96z
				 M202.61,41.5c-0.42-0.27-2.56-1.11-4.69-1.11c-3.63,0-3.85,2.37-3.85,4.81v5.84c0,2.71,0.23,4.81,4.12,4.81
				c1.72,0,4.08-0.38,4.43-0.69V41.5z"/>
		</g>
	</g>
</g>
<g id="Clear_Space" class="st0">
	<rect x="62.07" y="14.77" class="st6" width="14.43" height="15.02"/>
	<rect x="62.07" y="-0.25" class="st6" width="14.43" height="15.02"/>
	
		<rect x="206.11" y="39.3" transform="matrix(-1.836970e-16 1 -1 -1.836970e-16 260.1382 -166.5068)" class="st6" width="14.43" height="15.02"/>
	
		<rect x="161.3" y="73.23" transform="matrix(-1 -1.224647e-16 1.224647e-16 -1 337.0313 161.4857)" class="st6" width="14.43" height="15.02"/>
	<rect y="27.55" transform="matrix(-1 -1.224647e-16 1.224647e-16 -1 14.4334 70.1178)" class="st6" width="14.43" height="15.02"/>
</g>
</svg>
